<?xml version="1.0" standalone="no"?>
<!DOCTYPE svg PUBLIC "-//W3C//DTD SVG 20010904//EN"
 "http://www.w3.org/TR/2001/REC-SVG-20010904/DTD/svg10.dtd">
<svg version="1.0" xmlns="http://www.w3.org/2000/svg"
 width="554.000000pt" height="554.000000pt" viewBox="0 0 554.000000 554.000000"
 preserveAspectRatio="xMidYMid meet">
<metadata>
Created by potrace 1.14, written by Peter Selinger 2001-2017
</metadata>
<g transform="translate(0.000000,554.000000) scale(0.100000,-0.100000)"
fill="#000000" stroke="none">
<path d="M1605 4816 c-42 -18 -93 -79 -99 -118 -3 -18 -7 -85 -10 -148 -2 -68
-10 -132 -20 -158 -36 -100 -120 -183 -224 -223 -47 -17 -73 -20 -142 -17
-114 6 -158 27 -267 131 -105 99 -135 117 -198 117 -98 0 -166 -63 -173 -160
-6 -75 10 -104 114 -211 110 -114 128 -153 129 -284 0 -89 -3 -106 -27 -155
-39 -79 -88 -132 -155 -167 -74 -39 -141 -53 -259 -53 -105 0 -144 -12 -186
-56 -52 -56 -62 -128 -27 -200 35 -73 70 -88 234 -95 154 -7 199 -20 279 -76
57 -41 121 -137 137 -207 30 -137 -11 -260 -127 -381 -100 -104 -114 -128
-114 -192 0 -107 69 -176 175 -176 66 0 81 9 188 111 54 51 110 94 142 108
112 52 253 41 355 -28 124 -82 170 -190 170 -396 0 -83 3 -101 25 -138 65
-110 239 -109 302 2 20 34 23 54 23 149 0 66 6 135 15 170 44 172 214 289 394
272 91 -8 156 -43 258 -139 107 -102 122 -111 188 -111 103 0 176 71 177 172
0 66 -20 99 -122 207 -106 111 -130 163 -130 282 1 159 89 287 240 346 32 13
87 20 185 25 160 7 194 20 233 89 41 74 25 161 -41 219 -42 37 -60 41 -217 46
-86 4 -129 10 -173 27 -75 28 -158 108 -195 187 -24 51 -27 70 -27 158 0 129
18 167 137 292 96 100 108 122 108 189 0 100 -60 165 -159 172 -76 5 -100 -8
-217 -118 -119 -112 -168 -133 -294 -128 -72 2 -96 8 -152 36 -149 73 -208
192 -208 421 0 82 -3 100 -25 137 -42 72 -143 104 -220 70z m-90 -1100 c212
-99 217 -390 9 -496 -66 -34 -179 -35 -240 -3 -65 35 -101 70 -129 127 -69
142 -7 311 139 377 60 27 157 25 221 -5z m650 -540 c54 -36 76 -137 41 -191
-39 -59 -124 -82 -187 -50 -93 49 -91 201 4 249 38 20 105 16 142 -8z"/>
<path d="M4236 2910 c-32 -10 -62 -35 -79 -65 -6 -11 -14 -73 -17 -137 -6
-106 -9 -121 -36 -165 -78 -126 -234 -174 -359 -112 -22 12 -67 47 -100 79
-75 73 -121 95 -173 80 -65 -18 -102 -63 -102 -123 0 -51 11 -69 90 -153 46
-48 72 -86 84 -119 33 -99 13 -201 -55 -279 -60 -68 -110 -88 -244 -95 -122
-6 -156 -20 -182 -72 -16 -31 -16 -87 0 -119 25 -50 67 -67 179 -72 76 -4 118
-12 156 -28 124 -53 191 -208 147 -340 -13 -38 -36 -72 -85 -124 -79 -84 -90
-102 -90 -154 0 -81 76 -142 156 -127 28 5 56 25 108 75 95 91 142 114 229
113 52 -1 81 -7 122 -28 106 -52 155 -142 155 -289 0 -95 17 -139 69 -173 42
-28 86 -29 128 -3 56 34 67 61 73 190 6 102 10 123 32 161 56 94 136 140 247
142 84 1 132 -23 221 -109 90 -87 133 -101 199 -66 41 22 71 74 71 123 0 41
-32 90 -100 154 -112 106 -121 273 -20 388 57 65 121 89 248 95 112 5 154 22
179 72 30 59 3 144 -54 173 -17 9 -71 16 -133 19 -116 6 -157 19 -214 68 -57
50 -88 111 -93 184 -8 96 15 153 97 240 77 81 90 103 90 145 0 64 -37 114 -98
131 -57 15 -89 2 -167 -71 -100 -92 -142 -113 -230 -113 -83 1 -126 17 -185
71 -67 60 -90 119 -90 233 0 71 -5 104 -18 129 -30 60 -95 89 -156 71z m6
-829 c197 -84 231 -351 60 -476 -60 -43 -117 -59 -190 -52 -75 6 -129 34 -181
93 -123 140 -77 351 94 430 63 30 154 32 217 5z"/>
</g>
</svg>
