<?xml version="1.0" standalone="no"?>
<!DOCTYPE svg PUBLIC "-//W3C//DTD SVG 20010904//EN"
 "http://www.w3.org/TR/2001/REC-SVG-20010904/DTD/svg10.dtd">
<svg version="1.0" xmlns="http://www.w3.org/2000/svg"
 width="384.000000pt" height="384.000000pt" viewBox="0 0 384.000000 384.000000"
 preserveAspectRatio="xMidYMid meet">
<metadata>
Created by potrace 1.14, written by Peter Selinger 2001-2017
</metadata>
<g transform="translate(0.000000,384.000000) scale(0.100000,-0.100000)"
fill="#000000" stroke="none">
<path d="M1875 3505 c-28 -13 -47 -20 -145 -55 -19 -7 -53 -21 -76 -31 -23
-11 -47 -19 -54 -19 -7 0 -31 -8 -54 -19 -38 -17 -56 -24 -138 -52 -18 -6 -46
-18 -63 -25 -16 -8 -43 -18 -60 -23 -16 -5 -59 -20 -95 -34 -36 -14 -81 -31
-100 -38 -19 -7 -54 -21 -77 -31 -24 -10 -47 -18 -51 -18 -5 0 -53 -18 -108
-40 -54 -22 -106 -40 -114 -41 -8 0 -33 -10 -55 -22 l-40 -22 0 -575 c0 -316
4 -595 8 -620 5 -25 10 -54 13 -65 2 -11 6 -38 9 -60 8 -54 42 -178 66 -240
10 -28 19 -56 19 -64 0 -7 6 -25 14 -39 7 -15 33 -67 56 -117 43 -92 116 -216
157 -270 13 -16 29 -39 37 -50 45 -61 80 -100 170 -191 56 -55 119 -113 141
-130 22 -16 42 -31 45 -34 3 -3 37 -26 75 -52 103 -68 291 -160 353 -173 18
-4 45 -13 60 -21 34 -18 70 -18 103 0 14 7 49 19 78 26 28 6 51 16 51 20 0 5
14 12 32 15 52 12 288 144 328 185 3 3 23 18 45 34 22 17 84 73 137 125 86 85
116 119 173 196 8 11 26 34 38 50 13 17 37 53 53 80 15 28 32 51 36 53 4 2 12
19 18 38 6 19 16 34 21 34 5 0 9 5 9 11 0 10 48 119 76 171 8 14 14 32 14 39
0 8 9 36 19 64 25 63 58 188 65 240 3 22 12 74 20 115 12 60 15 187 16 637 l1
562 -25 16 c-14 9 -46 23 -72 31 -26 8 -52 18 -58 23 -6 4 -24 11 -41 15 -16
4 -48 16 -72 27 -23 10 -47 19 -53 19 -7 0 -26 6 -43 14 -53 24 -163 66 -173
66 -5 0 -27 10 -49 21 -22 12 -40 20 -40 19 0 -4 -46 9 -70 20 -11 5 -38 16
-60 24 -22 7 -56 19 -75 26 -19 7 -53 21 -76 31 -23 11 -47 19 -53 19 -7 0
-31 9 -54 19 -24 11 -56 23 -72 27 -17 4 -39 13 -50 20 -11 8 -26 14 -35 14
-8 1 -33 9 -55 20 -48 23 -61 24 -100 5z m56 -814 c34 -34 34 -41 13 -107 -25
-81 -28 -103 -27 -239 0 -108 4 -140 22 -190 12 -33 23 -65 24 -70 2 -6 10
-21 20 -35 9 -13 17 -28 17 -32 0 -36 172 -222 238 -258 20 -11 44 -25 52 -30
24 -15 108 -50 122 -51 19 -1 109 -32 132 -45 13 -8 19 -23 20 -51 1 -37 -5
-46 -56 -94 -68 -65 -77 -73 -109 -89 -13 -7 -26 -16 -29 -20 -9 -12 -118 -60
-137 -60 -10 0 -31 -8 -48 -17 -23 -12 -61 -17 -162 -19 -118 -2 -141 1 -215
24 -152 47 -270 123 -358 231 -50 61 -58 73 -98 156 -52 108 -65 161 -68 295
-3 160 16 232 113 414 18 34 156 175 195 199 67 42 108 62 178 87 104 36 125
37 161 1z"/>
</g>
</svg>
